<?xml version="1.0" encoding="UTF-8"?>
<!DOCTYPE svg PUBLIC "-//W3C//DTD SVG 1.1//EN" "http://www.w3.org/Graphics/SVG/1.1/DTD/svg11.dtd">
<!-- Creator: CorelDRAW X8 -->
<svg xmlns="http://www.w3.org/2000/svg" xml:space="preserve" width="51mm" height="51mm" version="1.1" style="shape-rendering:geometricPrecision; text-rendering:geometricPrecision; image-rendering:optimizeQuality; fill-rule:evenodd; clip-rule:evenodd"
viewBox="0 0 5100 5100"
 xmlns:xlink="http://www.w3.org/1999/xlink">
 <defs>
  <style type="text/css">
   <![CDATA[
    .fil0 {fill:#1F2041}
   ]]>
  </style>
 </defs>
 <g id="Слой_x0020_1">
  <metadata id="CorelCorpID_0Corel-Layer"/>
  <g id="_723351360">
   <path class="fil0" d="M2061 1836l476 0c70,0 109,-97 156,-181 23,-42 102,-185 132,-205 1,43 294,1022 325,1131 33,113 146,121 177,-5 25,-103 48,-195 73,-294l148 -585c14,60 28,129 100,129l971 0c0,172 -67,368 -123,492 -13,30 -36,67 -53,95 -42,71 -152,220 -208,268l-80 69c-31,25 -58,46 -91,68 -379,250 -809,289 -1231,120 -205,-81 -355,-207 -487,-365 -68,-80 -106,-138 -159,-238 -73,-136 -126,-346 -126,-499zm436 -168l-436 0c22,-266 133,-565 310,-751 98,-103 111,-129 241,-215 440,-292 1016,-305 1444,-8 151,105 174,141 278,257 144,160 285,498 285,717l-912 0c-4,-47 -45,-149 -61,-197 -31,-95 -34,-170 -117,-170 -49,0 -71,25 -82,67l-226 875c-1,-43 -23,-99 -36,-143l-209 -712c-40,-143 -47,-236 -141,-236 -72,0 -120,139 -183,244l-155 272zm-495 1130l-211 216c-206,-104 -161,-177 -327,-10 -38,37 -78,69 -107,111l622 627c30,-20 211,-196 211,-220 0,-75 -80,-163 -109,-218l216 -211c115,102 284,188 424,245 516,208 1167,132 1605,-199l163 -134c26,-21 35,-26 59,-51l182 -223c276,-412 379,-887 258,-1383 -12,-50 -27,-105 -46,-152 -11,-28 -16,-45 -27,-72 -40,-108 -117,-243 -182,-333 -17,-23 -25,-36 -41,-58 -57,-77 -180,-205 -253,-264 -159,-129 -190,-151 -378,-246 -527,-265 -1179,-199 -1671,128 -32,22 -55,37 -87,62 -208,163 -341,327 -474,566 -272,490 -245,1149 51,1644l122 175z"/>
   <path class="fil0" d="M38 4444c0,206 431,615 615,615 36,0 548,-533 583,-568 98,-98 189,-189 287,-287l290 -295c-95,-65 -292,-299 -389,-395l-235 -240 -216 211c-31,30 -41,50 -69,79l-724 724c-27,27 -142,123 -142,156z"/>
  </g>
 </g>
</svg>
