<?xml version="1.0" encoding="UTF-8"?>
<!DOCTYPE svg PUBLIC "-//W3C//DTD SVG 1.1//EN" "http://www.w3.org/Graphics/SVG/1.1/DTD/svg11.dtd">
<!-- Creator: CorelDRAW X8 -->
<svg xmlns="http://www.w3.org/2000/svg" xml:space="preserve" width="51mm" height="51mm" version="1.1" style="shape-rendering:geometricPrecision; text-rendering:geometricPrecision; image-rendering:optimizeQuality; fill-rule:evenodd; clip-rule:evenodd"
viewBox="0 0 5100 5100"
 xmlns:xlink="http://www.w3.org/1999/xlink">
 <defs>
  <style type="text/css">
   <![CDATA[
    .fil0 {fill:#1F2041}
   ]]>
  </style>
 </defs>
 <g id="Слой_x0020_1">
  <metadata id="CorelCorpID_0Corel-Layer"/>
  <g id="_357209368">
   <path class="fil0" d="M3601 1495c0,144 31,125 158,182 187,83 380,235 470,419 32,66 65,131 85,209 20,75 21,159 75,215 141,145 446,14 446,145l0 533c0,79 -120,62 -201,62 -100,0 -157,8 -216,51 -134,99 -136,336 -476,587 -87,65 -260,129 -260,273 0,134 77,184 77,294 0,63 -142,96 -193,116 -32,12 -206,81 -229,81 -143,0 -94,-430 -348,-410l-445 35c-123,3 -309,-14 -421,-39 -92,-21 -184,-46 -261,4 -129,84 -137,410 -251,410 -39,0 -391,-141 -406,-156 -62,-60 100,-321 100,-427 0,-147 -98,-194 -177,-264 -82,-74 -144,-139 -211,-222 -119,-146 -243,-379 -243,-642l0 -85c0,-238 65,-495 151,-653 113,-209 201,-295 383,-432 290,-220 739,-383 1216,-383 219,0 292,5 506,39 153,24 232,92 307,-54 58,-113 103,-176 190,-262 47,-45 210,-159 278,-174 -42,180 -104,316 -104,548zm-980 -317l-310 0c-149,0 -469,63 -593,107 -358,128 -624,261 -886,533 -80,83 -237,320 -266,445 -50,-1 -160,-82 -191,-111 -48,-44 -92,-118 -96,-205 -13,-303 217,-242 217,-383 0,-62 -50,-112 -116,-112 -78,0 -194,112 -231,164 -142,202 -116,494 44,664 114,120 151,123 303,196l-43 374 0 124c0,312 162,616 313,788 82,94 181,203 283,275 42,29 42,31 19,87 -26,64 -104,255 -104,306l0 42c0,147 131,241 246,281 101,35 293,125 405,125 280,0 276,-260 367,-433 71,6 148,34 232,44 67,8 155,13 254,15 129,3 404,-7 509,-32 86,179 95,406 364,406 94,0 320,-97 398,-125 115,-42 245,-134 245,-284 0,-152 -76,-216 -81,-286 486,-257 597,-643 644,-689 32,-32 191,-7 252,-16 139,-20 257,-125 257,-280l0 -541c0,-108 -69,-202 -147,-243 -102,-56 -208,-27 -352,-39 -17,-197 -159,-431 -257,-554 -82,-102 -333,-313 -471,-345 0,-329 170,-662 170,-730 0,-62 -46,-112 -112,-112 -75,0 -284,101 -347,132 -167,81 -342,259 -436,419 -19,33 -23,63 -61,56 -111,-22 -314,-63 -422,-63z"/>
   <path class="fil0" d="M1034 962c0,145 30,261 81,367l198 -95c-18,-75 -58,-116 -58,-264 0,-303 263,-587 557,-587l85 0c148,0 316,106 388,185 86,94 162,230 162,409 40,0 216,16 221,-15 4,-27 -11,-132 -24,-181 -37,-133 -79,-219 -156,-315 -133,-166 -352,-307 -645,-307 -439,0 -809,376 -809,803z"/>
   <path class="fil0" d="M3593 2588c0,119 93,216 193,216l27 0c99,0 198,-98 198,-193l0 -35c0,-101 -104,-193 -209,-193 -111,0 -209,95 -209,205z"/>
  </g>
 </g>
</svg>
