<?xml version="1.0" encoding="UTF-8"?>
<!DOCTYPE svg PUBLIC "-//W3C//DTD SVG 1.1//EN" "http://www.w3.org/Graphics/SVG/1.1/DTD/svg11.dtd">
<!-- Creator: CorelDRAW X8 -->
<svg xmlns="http://www.w3.org/2000/svg" xml:space="preserve" width="51mm" height="51mm" version="1.1" style="shape-rendering:geometricPrecision; text-rendering:geometricPrecision; image-rendering:optimizeQuality; fill-rule:evenodd; clip-rule:evenodd"
viewBox="0 0 5100 5100"
 xmlns:xlink="http://www.w3.org/1999/xlink">
 <defs>
  <style type="text/css">
   <![CDATA[
    .fil0 {fill:#1F2041}
   ]]>
  </style>
 </defs>
 <g id="Слой_x0020_1">
  <metadata id="CorelCorpID_0Corel-Layer"/>
  <g id="_720372888">
   <path class="fil0" d="M725 4137c-18,46 -94,50 -145,24 -16,-7 -16,-6 -30,-18 -19,-15 -28,-24 -6,-68 12,-26 18,-25 29,-32l6 -3c14,-20 28,-29 59,-35 27,-4 54,-2 76,10 19,11 35,28 38,58 4,37 -8,49 -27,64zm1383 -404c-10,-43 5,-82 8,-126 7,-23 9,-37 14,-59 2,-8 6,-22 8,-29l12 -22c-2,-39 70,-183 92,-212l74 -105 1 2c11,-24 34,-48 45,-61 19,-22 31,-38 57,-49l22 -15c12,-30 18,-25 41,-41 23,-17 19,-21 46,-30l221 -112 98 -29c285,-32 362,-22 606,80 24,10 16,5 28,21l36 16c9,5 21,10 25,14 9,6 7,5 13,11 1,1 3,5 4,4 1,-1 3,3 4,5l89 69c32,15 61,44 76,76 14,9 16,15 31,34 16,14 23,26 37,47 14,20 21,26 34,52l37 64 23 46 37 111c15,16 12,23 18,49l32 283 -8 94 -16 106 -6 10 -50 151c-22,51 -74,159 -109,181 -2,25 -50,68 -50,68 0,-1 -2,2 -3,3 -10,21 -17,28 -35,38 -20,31 -37,40 -64,62l-25 14c-16,25 -29,31 -50,41 -4,9 6,1 -13,14 -15,11 -13,9 -30,12l-48 35c-23,13 -35,18 -61,25 -26,24 -168,64 -212,62 -25,17 -81,16 -116,17l-110 -1c-37,-1 -99,-3 -125,-23 -36,1 -73,-12 -104,-23 -23,-8 -26,-5 -41,-21 -32,-2 -112,-39 -125,-61 -50,-16 -137,-85 -162,-116 -9,-5 -11,-4 -20,-14 -24,-23 -7,-3 -12,-21 -27,-17 -26,-22 -42,-41 -15,-16 -25,-22 -32,-42 -25,-19 -15,-3 -18,-28 -24,-15 -50,-62 -65,-94l-22 -53c-11,-10 1,6 -13,-16 -3,-3 -6,-10 -8,-14 -12,-25 -7,-13 -13,-37l-38 -117 -23 -124 0 -52c-10,-16 -5,-2 -7,-28 -1,-8 -1,-27 -1,-36 0,-27 -2,-47 8,-65zm-1422 -150c-13,22 -9,13 -23,21 -20,19 -44,34 -81,31 -27,17 -89,6 -112,-9l-16 -10c-30,-11 -40,-19 -63,-52 -24,-35 -15,-42 3,-74 13,-18 15,-22 29,-35 3,-2 19,-16 20,-16 15,-9 4,-4 20,-7 20,-26 112,-55 146,-29 87,-4 139,120 77,180zm3053 -1666c-91,37 -135,69 -158,175l-3 101 0 118 0 100c0,30 -2,50 -16,71 -13,20 -26,31 -49,30 -17,17 -46,15 -72,18 -189,3 -379,6 -568,11 -111,3 -480,42 -496,-56 -11,-9 -11,0 -18,-28 -2,-12 -2,-30 -2,-43 3,-52 -1,-126 -2,-180 -1,-55 -15,-128 -15,-166 -20,-15 -22,-23 -31,-44 -25,-5 -9,-5 -30,-22 -9,-8 -23,-15 -30,-19l-69 -28 -79 7 -40 21c-27,17 -54,43 -69,54 -9,14 -12,18 -22,32 -6,8 -5,8 -14,17 -8,9 -3,4 -13,11l-19 137 -7 62 -57 287c-7,25 -8,38 -27,53 -7,65 -240,292 -270,300 -11,21 -6,13 -20,20 -3,15 -95,127 -115,157 -19,28 -38,54 -56,82 -12,19 -35,73 -49,81 -10,27 -42,93 -57,113l-34 81c-3,8 -4,12 -8,19 -7,11 -6,8 -12,14 2,37 -45,96 -34,128 -13,17 -17,32 -25,55 -7,20 -10,34 -19,49l-9 50c-7,23 -10,46 -22,61l-14 92c-11,39 -14,99 -28,122 8,42 -10,99 -14,143l-9 64 1 314 3 15 -347 -21 -21 -14c-77,-5 -194,-146 -215,-235l-3 -8c0,-1 2,-3 2,-5l134 0 170 -26c15,-16 9,-10 32,-15l21 -9 57 -42 87 -115 20 -65 -9 -104 -23 -35c-60,-35 -101,-75 -215,-59 -36,5 -76,19 -106,33 -29,14 -67,42 -88,47 -8,15 -4,10 -17,16 -9,28 -34,43 -52,58 -6,13 -10,19 -17,30 -3,4 -7,9 -10,13 -8,9 -4,6 -11,12l-12 34c-24,-1 -45,-5 -59,-22 -30,-9 -20,2 -34,-25 -34,-8 -73,-72 -81,-126 -10,-64 10,-130 42,-167l129 35 103 5 50 -1 124 -37c17,-16 77,-40 102,-59 23,-18 72,-69 80,-72l25 -48c9,-42 6,-78 13,-109 -45,-63 -35,-92 -95,-142 -53,-43 -113,-37 -162,-66l-83 1 -97 26 -248 93c-34,-25 -48,-39 -54,-96l69 -267c7,-14 9,-18 17,-29 1,-2 8,-11 9,-12 7,-8 6,-7 12,-13 10,-13 50,-60 72,-66 46,-61 193,-84 260,-90 38,-3 136,36 167,51l127 13 218 -68c22,-29 77,-40 111,-51l7 -1c8,-9 5,-9 23,-17 9,-5 18,-6 25,-9 22,-8 32,-13 53,-21 17,-16 76,-37 98,-38 21,-28 73,-39 103,-57 41,-26 39,-53 72,-82l16 -110c-7,-53 -25,-66 -40,-110l-72 -10c-10,10 6,0 -20,14 -3,1 -22,8 -26,10l-35 12c-18,19 -25,19 -48,28 -19,7 -28,12 -48,21 -23,13 -182,80 -208,83 -31,26 -84,39 -124,50 -18,15 -189,77 -214,77 -15,19 -14,13 -40,18l-277 98c-32,31 -82,41 -121,63 -42,23 -79,51 -111,65 -19,16 -12,16 -37,23 -12,29 -11,18 -32,35 -20,16 -11,15 -34,27l-39 49c-15,32 -33,57 -48,92 -13,29 -23,71 -43,91l-18 143 13 104c12,35 20,77 35,110 14,33 39,72 42,103 16,14 25,36 39,57 21,30 29,35 -1,64l-23 93 4 117 115 211c4,1 15,7 18,10 10,6 7,6 13,12l39 66 30 142c16,36 26,76 44,110 16,31 48,75 54,97 23,10 18,10 33,25 10,10 18,16 26,34 27,11 42,28 72,43 31,14 4,0 13,7 1,0 3,3 4,3 0,1 2,3 3,4l125 45 111 22 54 0 194 -4 3 0 37 148 3973 9c32,-14 4,-3 23,-36l2 -80 3 -104 0 -118 2 -103 -24 -446 -5 -93 -12 -53c-3,-46 -20,-95 -16,-142 -17,-23 -50,-209 -58,-251l-26 -91c-22,-44 -61,-166 -80,-219l-52 -114 -21 -24 -52 -89c-14,-9 -50,-51 -57,-64 -19,-21 -44,-45 -61,-64 -17,-11 -38,-25 -49,-43l-308 -189c-27,-12 -79,-52 -82,-66 -1,-3 -2,-3 -3,-5 -21,-6 -28,-10 -35,-30 -20,-11 -8,-1 -23,-18 -7,-7 -8,-11 -16,-20 -19,-22 -16,-17 -31,-42 -33,-47 -90,-157 -75,-232l-22 -92c-17,-97 -60,-171 -160,-184l-91 9z"/>
   <path class="fil0" d="M3658 168l-163 29 -76 13c-23,22 -81,26 -114,34l-52 11 -27 15c-11,4 -21,7 -33,12 -42,13 -79,40 -120,44 -13,14 -25,18 -45,28 -25,8 -17,14 -47,15 -20,21 -84,46 -115,55l-206 98 -126 53 -205 91c-14,14 -4,9 -28,16 -19,13 -57,33 -82,34 -21,26 -81,44 -114,57l-220 95c-25,25 -178,89 -218,108l-211 90c-8,7 1,1 -15,10 -4,3 -16,9 -19,11 -19,9 -27,11 -47,16l-33 16c-5,5 -4,5 -14,11 -4,3 -13,7 -19,10 -18,8 -26,10 -44,14 -14,12 -125,63 -143,64l-13 13c-38,12 -60,33 -95,35 -16,22 -85,47 -112,57l-28 9c-7,10 -1,6 -11,14 -7,6 -4,4 -13,9 -14,8 -25,12 -41,17l-295 281c-7,10 -13,19 -19,28 -13,19 -3,11 -23,23l-39 72 -42 87c-26,83 -45,133 -59,227l-4 122 7 76c13,15 40,108 75,149 28,34 86,91 160,80l56 -19c19,-15 139,-57 161,-59l10 -6c2,-1 12,-7 14,-8l205 -76c34,-16 254,-97 278,-98 6,-6 3,-6 14,-11 16,-7 -2,0 22,-6 28,-21 116,-40 148,-63l11 -113 7 -73 79 -244c4,-17 12,-52 21,-68 10,-18 2,-15 53,-33 42,-14 81,-31 123,-45l99 -34 15 -8c7,-4 9,-4 16,-8l100 -39 305 -111 113 -46 207 -75c20,-15 50,-26 79,-33l78 -26c6,-5 4,-6 14,-11 2,-2 13,-7 15,-8 20,-9 23,-8 44,-11 18,-17 91,-43 116,-42 2,-1 4,-5 5,-4l35 -17c23,-9 27,-13 50,-14 15,-14 89,-40 118,-47l115 -45 47 -18 65 -25 80 -32 136 -22c34,1 73,1 95,21 37,0 58,25 57,60 16,20 33,64 63,103l1 7c26,14 23,21 50,41 15,11 44,22 56,37l104 -22c23,-25 76,-33 110,-42 29,-12 191,-67 213,-68l105 -41c62,-18 230,-86 281,-88 15,-16 20,-14 43,-19l39 -26c15,-46 26,-64 22,-121l-10 -72 -39 -75 -36 -44c-23,-16 -21,-23 -39,-43 -18,-20 -22,-19 -38,-44l-18 -17c-35,-25 -66,-48 -97,-78 -16,-14 -30,-21 -47,-35 -23,-12 -44,-23 -60,-40l-211 -91 -13 -6 -218 -47c-104,-8 -179,-10 -285,-7l-94 6z"/>
   <path class="fil0" d="M2862 3228c-82,22 -156,70 -208,120 -9,8 -10,8 -19,17 -31,29 -70,84 -95,121l-22 29c1,18 -22,71 -32,87 -23,117 -38,162 -24,292l38 138c20,39 34,72 60,115 11,18 23,34 37,49 20,21 32,28 43,55l7 2 110 84 78 32c22,8 21,4 36,18l100 16 100 3 141 -19 100 -49c34,-19 58,-43 97,-61l23 -18c9,-15 5,-10 17,-23 7,-8 9,-10 17,-19 17,-21 16,-26 41,-41l16 -29c10,-22 15,-29 26,-50 13,-24 7,-27 29,-45 -1,-52 50,-161 45,-276 -6,-122 -59,-199 -65,-264l-48 -73 -31 -42c-28,-13 -56,-47 -78,-72l-8 -8c-16,-4 0,4 -22,-11 -8,-5 -10,-8 -18,-14l-23 -20 -139 -55c-121,-14 -209,-36 -329,11z"/>
   <path class="fil0" d="M4829 942c-6,5 -5,5 -14,10l-102 40c-53,18 -205,85 -246,88 -6,5 -5,5 -15,11 -3,2 -18,8 -20,9l-96 34 -57 21 -118 45c-34,19 -112,50 -157,57 6,32 13,36 20,62l32 39c29,9 35,23 71,34 36,12 62,12 100,11l24 1 113 -40c29,-17 216,-84 246,-83 6,-7 3,-5 13,-11 7,-3 13,-6 21,-9 19,-7 26,-9 46,-13 137,-85 212,-10 250,-227 -13,-14 -11,-18 -17,-40 -50,-31 -3,-38 -94,-39z"/>
  </g>
 </g>
</svg>
