<?xml version="1.0" encoding="UTF-8"?>
<!DOCTYPE svg PUBLIC "-//W3C//DTD SVG 1.1//EN" "http://www.w3.org/Graphics/SVG/1.1/DTD/svg11.dtd">
<!-- Creator: CorelDRAW X8 -->
<svg xmlns="http://www.w3.org/2000/svg" xml:space="preserve" width="51mm" height="51mm" version="1.1" style="shape-rendering:geometricPrecision; text-rendering:geometricPrecision; image-rendering:optimizeQuality; fill-rule:evenodd; clip-rule:evenodd"
viewBox="0 0 5100 5100"
 xmlns:xlink="http://www.w3.org/1999/xlink">
 <defs>
  <style type="text/css">
   <![CDATA[
    .fil0 {fill:#1F2041}
   ]]>
  </style>
 </defs>
 <g id="Слой_x0020_1">
  <metadata id="CorelCorpID_0Corel-Layer"/>
  <g id="_357212944">
   <path class="fil0" d="M2737 1553c0,245 -136,380 -136,622 0,546 756,356 901,599 118,198 -150,169 -150,301 0,106 40,18 40,199 0,139 -216,132 -216,231 0,103 76,241 -62,281 -203,60 -146,-5 -146,205 0,79 -100,96 -175,96 -153,0 -390,-36 -522,-62 -173,-33 -276,-104 -382,-200 -232,-209 -201,-77 -414,-168 -180,-77 -160,-377 -160,-582 0,-304 17,-363 257,-421 190,-45 278,-173 388,-298 161,-182 473,-570 473,-891 0,-240 -28,-455 178,-233 60,65 126,200 126,321zm2324 973l0 16c-6,97 -131,104 -171,179 -109,206 349,289 -19,435 -303,119 166,372 -104,454 -92,27 -216,12 -210,157 3,60 104,242 -7,253 -121,51 -216,-47 -290,96 -46,90 43,214 -33,269 -10,7 -7,3 -17,10l-11 11c-144,59 -286,-179 -331,180 -34,267 -236,-1 -369,69 -110,58 -84,385 -290,212 -223,-187 -240,34 -325,116 -152,147 -192,-194 -371,-124 -91,37 -201,307 -319,57 -122,-257 -266,-23 -354,-9 -204,31 -37,-234 -301,-273 -69,15 -136,80 -210,60 -59,-16 -64,-90 -66,-137 0,-7 0,-26 -1,-32 -6,-33 -6,-20 -11,-27l-6 -37c-12,-33 -39,-56 -74,-74 -81,11 -72,-1 -166,21 -63,15 -110,4 -137,-43 -53,-94 56,-220 -53,-298 -97,-69 -242,28 -288,-87 -39,-99 93,-192 13,-299 -68,-91 -220,-34 -263,-129 -50,-112 99,-162 78,-283 -22,-126 -159,-104 -220,-172 -88,-99 64,-175 96,-235 87,-167 -127,-212 -170,-295l0 -59c14,-29 49,-64 115,-108 268,-178 -281,-359 28,-474 388,-144 -117,-361 134,-463 91,-37 220,-6 229,-152 3,-54 -108,-253 5,-265 88,-32 195,18 262,-53 78,-83 15,-155 32,-261 -33,-134 210,-46 249,-48 149,-7 119,-121 142,-225 62,-278 351,159 440,-150 112,-391 265,94 447,-80 53,-52 76,-198 182,-179 88,16 105,136 200,161 121,32 163,-95 222,-137 119,-85 157,48 198,115 161,258 367,-231 461,58 136,416 323,-34 435,155 59,99 -10,204 102,265 109,60 200,-66 288,8 85,72 -17,202 45,290 77,109 181,25 276,75 192,100 -227,321 201,413 294,64 -175,324 105,453 385,177 -62,202 26,428 34,87 170,87 176,192l0 0zm-3546 1761c-24,-13 -41,-27 -64,-40 -28,-16 -10,-1 -35,-22l-94 -72c-50,-36 -272,-230 -274,-269 83,-15 352,-27 450,-12 28,5 36,2 59,16 136,13 327,215 461,287 145,77 428,98 636,122 256,30 460,-29 518,-222 29,-97 -21,-70 64,-120 136,-80 188,-209 188,-386 95,-64 170,-162 189,-306 19,-156 -51,-58 49,-181 36,-45 63,-110 72,-176 45,-352 -249,-427 -515,-480 -393,-78 -475,-117 -339,-523 98,-293 106,-548 -76,-775 -160,-198 -523,-316 -584,30 -23,130 19,309 -25,452 -75,239 -466,777 -671,829 -129,32 -759,14 -968,14 0,-453 271,-923 482,-1176 244,-292 597,-527 1024,-636 1066,-273 1872,304 2256,936 490,809 255,1917 -342,2432 -301,260 -624,479 -1114,545 -823,112 -1278,-263 -1347,-267z"/>
   <path class="fil0" d="M1515 4287c-17,-25 -4,-13 -40,-33l-177 -126c-7,-4 -7,-4 -14,-10 -1,-2 -6,-6 -7,-8 -2,-1 -3,-3 -4,-4l-142 -131c-21,-17 -9,-10 -26,-29 -19,-23 -37,-33 -53,-58 94,0 159,-8 255,-8 19,0 46,1 63,-1 137,-16 81,9 187,9 -23,-14 -31,-11 -59,-16 -98,-15 -367,-3 -450,12 2,39 224,233 274,269l94 72c25,21 7,6 35,22 23,13 40,27 64,40z"/>
   <path class="fil0" d="M4199 4406l16 -6c108,-50 13,-190 50,-278 57,-136 214,-53 271,-93 29,5 3,3 14,-9 -121,51 -216,-47 -290,96 -46,90 43,214 -33,269 -10,7 -7,3 -17,10l-11 11z"/>
   <path class="fil0" d="M572 1046c88,-32 195,18 262,-53 78,-83 15,-155 32,-261 -12,6 -25,-13 -10,67 14,76 23,143 -31,194 -1,1 -3,3 -4,4 -2,1 -4,2 -5,3 -1,1 -3,3 -5,3l-33 15c-33,13 1,6 -30,10 -8,0 -30,-1 -40,-1 -35,0 -76,-7 -103,0 -28,7 -20,6 -33,19z"/>
   <path class="fil0" d="M1539 4634c-69,15 -136,80 -210,60 -59,-16 -64,-90 -66,-137 0,-7 0,-26 -1,-32 -6,-33 -6,-20 -11,-27 0,56 -5,108 20,152l9 14c14,20 20,32 47,40 23,7 41,7 63,0l51 -23c18,-9 28,-14 47,-23 8,-4 14,-6 23,-10 2,-1 10,-3 12,-4 17,-8 3,1 16,-10z"/>
   <path class="fil0" d="M1245 4461c-12,-33 -39,-56 -74,-74 17,29 14,11 39,36l35 38z"/>
  </g>
 </g>
</svg>
