<?xml version="1.0" encoding="UTF-8"?>
<!DOCTYPE svg PUBLIC "-//W3C//DTD SVG 1.1//EN" "http://www.w3.org/Graphics/SVG/1.1/DTD/svg11.dtd">
<!-- Creator: CorelDRAW X8 -->
<svg xmlns="http://www.w3.org/2000/svg" xml:space="preserve" width="51mm" height="51mm" version="1.1" style="shape-rendering:geometricPrecision; text-rendering:geometricPrecision; image-rendering:optimizeQuality; fill-rule:evenodd; clip-rule:evenodd"
viewBox="0 0 5100 5100"
 xmlns:xlink="http://www.w3.org/1999/xlink">
 <defs>
  <style type="text/css">
   <![CDATA[
    .fil0 {fill:#1F2041}
   ]]>
  </style>
 </defs>
 <g id="Слой_x0020_1">
  <metadata id="CorelCorpID_0Corel-Layer"/>
  <path class="fil0" d="M4221 3120l-15 105c-8,45 -34,169 -51,201l-37 104c-54,199 -294,522 -479,663 -86,66 -117,96 -222,156 -53,31 -288,151 -351,148 -19,17 -81,27 -111,32 -23,9 -66,20 -90,15l-35 10c-112,16 -455,30 -506,-11 -26,2 -60,-5 -84,-14 -33,-5 -89,-12 -111,-32 -26,2 -69,-16 -93,-28l-40 -15c-63,-18 -332,-158 -373,-212 -19,-4 -90,-64 -94,-76 -29,-13 -132,-121 -157,-151 -67,-83 -62,-72 -133,-173 -59,-83 -174,-297 -199,-417 -16,-25 -40,-154 -51,-197 -35,-300 -41,-541 68,-836 70,-191 209,-442 360,-585l15 -15c22,-32 60,-58 93,-86 10,-15 0,-8 17,-11 12,-20 17,-20 34,-34 80,-63 184,-135 275,-179 61,-28 318,-144 382,-135 17,-11 71,-21 120,-26l92 -12 101 -6 103 0 103 6 90 12c23,2 99,13 120,26 65,-10 330,111 392,141 56,27 121,67 168,101 26,19 129,94 150,117 15,17 32,28 49,42 11,10 13,13 22,23 10,11 12,13 20,21 23,17 67,73 90,100 211,248 354,591 374,928l4 97 -2 97 -8 106zm-1773 -2074l-108 11c-27,7 -63,14 -90,11 -19,15 -124,32 -155,40 -137,35 -287,100 -407,165 -239,131 -461,326 -613,535 -50,70 -106,149 -149,234 -97,194 -146,329 -196,567l-24 206 -3 56 1 153 7 98c7,57 16,148 32,198 33,217 156,478 257,634 40,62 137,199 192,251 38,37 66,74 109,111 96,83 122,114 247,197 356,236 775,349 1216,311 361,-32 764,-191 1024,-415l58 -49c20,-16 40,-37 59,-54 88,-79 184,-200 253,-297 198,-275 312,-629 333,-985l1 -153 -3 -57c-6,-73 -13,-140 -26,-211 -12,-70 -31,-132 -44,-196 -10,-17 -29,-79 -29,-98 -10,-10 -7,-9 -13,-23 -76,-221 -192,-396 -329,-569 -13,-16 -24,-26 -36,-41 -23,-30 -148,-150 -188,-184 -175,-149 -446,-310 -669,-367l-209 -57c-31,3 -64,-6 -95,-10l-99 -12 -105 -5 -100 0 -99 5z"/>
  <path class="fil0" d="M610 2829l-2 -14 8 -103 15 -101c4,-27 10,-94 25,-110 -2,-29 9,-64 19,-89 42,-198 177,-456 272,-594 128,-185 252,-315 413,-445 298,-240 768,-450 1289,-431 95,5 213,10 301,32 27,3 98,11 114,27 87,-4 377,127 450,164 132,65 270,163 366,245 117,99 202,189 299,313 64,81 197,284 229,383l42 97c20,33 61,165 70,209l24 94 20 105 14 103 9 102 -2 32c15,24 7,132 4,166 -7,253 -79,544 -174,741 -68,140 -82,163 -163,291 -87,137 -200,257 -318,366 -275,255 -704,469 -1086,501l-97 10 -103 5 -98 0c-383,-9 -739,-126 -1039,-322 -91,-60 -181,-127 -253,-196 -42,-41 -77,-68 -116,-114 -187,-217 -328,-411 -426,-701 -22,-66 -93,-297 -86,-363 -16,-22 -14,-77 -17,-108l-7 -106c-2,-31 -8,-172 4,-189zm1704 -2000c-7,7 -20,7 -36,10 -11,1 -24,3 -36,5l-103 20c-69,16 -134,34 -202,55l-110 38c-12,9 -64,28 -82,36 -30,14 -54,24 -83,39 -165,85 -232,126 -376,237 -19,14 -51,44 -69,51l-92 89c-51,47 -92,97 -132,139l-81 97c-7,10 -13,18 -19,27l-18 19 -78 120c-52,83 -89,153 -132,245 -11,22 -20,45 -30,68 -9,21 -15,49 -29,63l-4 16 -34 102 -27 97 -48 217c3,31 -5,63 -8,94l-8 102 -2 56 0 146 6 105 12 94c-2,28 14,68 11,101l53 212 33 100c79,226 247,537 410,707l100 105 25 24c89,96 308,254 420,316 165,91 327,163 519,211 65,17 134,31 203,42 42,7 192,16 215,26l203 0c20,-6 146,-12 181,-17 59,-7 117,-18 175,-29 262,-55 555,-180 771,-336 21,-15 39,-31 63,-43 2,-3 0,-1 6,-7l87 -70c7,-10 1,-5 11,-6 6,-9 2,-3 8,-10l16 -15c12,-11 13,-13 24,-22l46 -42c0,-2 2,-2 3,-2l20 -20c11,-22 25,-25 43,-43 14,-16 24,-32 40,-43l8 -10c16,-20 30,-35 45,-54 14,-18 28,-39 46,-52 3,-12 -1,-1 8,-16l66 -92c24,-35 48,-72 70,-109 144,-246 240,-503 280,-801l11 -98 7 -107 0 -145 2 -52c-13,-21 -9,-74 -13,-103 -2,-32 -11,-65 -8,-96l-47 -218 -28 -96 -35 -102c-21,-42 -39,-96 -59,-140 -37,-85 -88,-178 -137,-256 -18,-29 -70,-96 -77,-119l-150 -181 21 -17c11,-21 28,-33 45,-50 17,-16 29,-34 50,-44 3,-8 1,-5 8,-14 7,2 84,35 89,38 49,9 64,16 120,12 69,-23 99,-56 91,-148 -6,-42 -18,-78 -35,-113 -16,-36 -37,-65 -51,-97 -12,-7 -15,-15 -18,-27 -13,-7 -39,-42 -49,-54 -16,-20 -30,-27 -48,-49 -27,-31 -73,-57 -110,-88 -35,-16 -63,-39 -108,-56 -46,-17 -88,-26 -142,-23 -56,14 -82,39 -95,98 -3,44 2,62 11,102l26 76c8,7 3,-9 11,13 9,26 -94,98 -135,152 -21,-6 -79,-50 -101,-64 -264,-173 -479,-242 -795,-311l-72 -14 -6 -284 81 -29c38,-27 125,-54 163,-129 48,-96 -8,-151 -61,-205 -12,-5 -2,1 -14,-8 -10,-8 -3,-3 -6,-7 -57,-24 -93,-50 -166,-71 -29,-9 -64,-17 -96,-22 -31,-5 -77,-4 -103,-15l-138 0c-24,9 -142,9 -254,51 -38,14 -73,28 -105,48 -124,74 -161,194 -54,285 95,81 146,72 198,103l-2 272c-3,16 4,0 -4,10z"/>
  <path class="fil0" d="M2451 1889l-4 9c-15,41 -13,57 -13,102l0 101 0 103 0 101 0 103 0 101 0 103 0 101 0 103c0,50 10,75 -19,102 -11,18 -20,31 -33,49 -10,13 -21,36 -35,42 -7,17 -4,10 -12,16 -2,13 -6,15 -15,28 -6,8 -12,16 -20,26l-107 151 -313 434c-98,127 37,265 154,206 46,-23 104,-118 135,-162l375 -520c30,-42 136,-178 147,-218 11,-43 4,-627 4,-721 0,-112 13,-251 -12,-354 -6,-5 -30,-36 -36,-42 -33,-21 -50,-29 -98,-28 -23,4 -45,13 -61,24 -8,6 -15,14 -21,20 -8,10 -11,15 -16,20z"/>
  <polygon class="fil0" points="1259,2868 1036,2870 1029,2870 1029,3001 1251,3001 1257,3001 "/>
  <polygon class="fil0" points="3936,2868 3938,3001 4159,3001 4166,3001 4166,2876 4166,2871 "/>
  <path class="fil0" d="M3733 3640c-2,16 2,1 -7,19 -3,6 -7,12 -10,18 9,11 172,108 193,117 11,-10 61,-93 67,-112 -41,-17 -172,-109 -199,-112 -9,21 -27,59 -44,70z"/>
  <path class="fil0" d="M1738 4248l109 66c12,-11 113,-181 117,-197l-112 -65 -114 196z"/>
  <path class="fil0" d="M2003 1696c-17,-14 -49,-79 -60,-103l-34 -65c-18,5 -105,51 -116,63l107 199 114 -63c-8,-18 -9,-12 -11,-31z"/>
  <polygon class="fil0" points="2532,1387 2532,1489 2532,1591 2546,1596 2649,1596 2663,1592 2663,1489 2663,1388 2662,1368 2649,1367 2546,1367 2533,1368 "/>
  <polygon class="fil0" points="3808,2352 4006,2243 3946,2129 3743,2238 "/>
  <path class="fil0" d="M2532 4346l0 102 0 51 14 5 103 0c20,-3 12,6 14,-15l0 -39 0 -103 -1 -72 -129 1 -1 70z"/>
  <path class="fil0" d="M3341 1818c20,-34 108,-171 115,-196l-109 -64 -61 99c-17,28 -44,68 -55,97l110 64z"/>
  <path class="fil0" d="M3264 4093c-18,24 -56,34 -82,51l109 199 112 -60c-13,-41 -58,-99 -75,-146l-33 -54 -31 10z"/>
  <path class="fil0" d="M1220 2189l193 114c12,-14 59,-93 66,-112l-195 -115 -64 113z"/>
  <path class="fil0" d="M1190 3627l59 113c18,-5 191,-99 200,-108l-59 -112 -200 107z"/>
 </g>
</svg>
