<?xml version="1.0" encoding="UTF-8"?>
<!DOCTYPE svg PUBLIC "-//W3C//DTD SVG 1.1//EN" "http://www.w3.org/Graphics/SVG/1.1/DTD/svg11.dtd">
<!-- Creator: CorelDRAW X8 -->
<svg xmlns="http://www.w3.org/2000/svg" xml:space="preserve" width="51mm" height="51mm" version="1.1" style="shape-rendering:geometricPrecision; text-rendering:geometricPrecision; image-rendering:optimizeQuality; fill-rule:evenodd; clip-rule:evenodd"
viewBox="0 0 5100 5100"
 xmlns:xlink="http://www.w3.org/1999/xlink">
 <defs>
  <style type="text/css">
   <![CDATA[
    .fil0 {fill:#1F2041}
   ]]>
  </style>
 </defs>
 <g id="Слой_x0020_1">
  <metadata id="CorelCorpID_0Corel-Layer"/>
  <path class="fil0" d="M2068 4128l350 -352c94,66 97,116 41,207 -50,82 -62,173 3,248 27,32 25,30 6,33 -8,2 -23,0 -33,1 -127,13 -233,-25 -330,-106 -11,-10 -27,-24 -37,-31zm-52 -3001l73 0c88,4 183,21 287,58 38,14 88,36 121,55 120,69 83,76 160,37 249,-127 534,-140 795,-35 31,13 59,23 89,38l133 62c14,6 26,13 42,21 162,77 244,74 424,34l137 -39c31,-11 65,-17 92,7 32,28 199,332 248,414l88 151c32,52 59,101 91,154l176 301c9,14 14,25 23,40 23,39 58,83 61,125l0 13c-2,20 -12,40 -36,58 -85,63 -174,117 -260,179l-104 72c-88,59 -344,249 -416,287 34,50 99,92 138,140 76,94 105,229 46,345 -24,49 -61,93 -106,123 -66,42 -189,77 -268,39 -9,105 -70,194 -156,244 -43,24 -91,40 -157,41 -65,0 -109,-16 -156,-41 0,33 -23,77 -37,100 -69,114 -208,178 -346,146 -57,-14 -31,-19 -80,13 -119,80 -282,110 -425,67 -33,-10 -23,-8 -56,3 -171,61 -397,51 -551,-45 -53,-33 -124,-90 -160,-143 -26,6 -55,5 -83,5 -157,0 -281,-144 -293,-292 -193,45 -391,-89 -391,-302l-73 5c-124,0 -220,-86 -270,-188 -38,-77 -32,-180 2,-255 18,-41 41,-61 63,-93 -18,-27 -79,-66 -106,-89l-315 -261c-10,-9 -14,-13 -26,-22l-342 -283c-28,-21 -36,-41 -36,-76 0,-33 216,-321 251,-373l129 -183c122,-164 231,-336 353,-500 12,-16 19,-30 32,-46 58,-72 126,-10 217,20 75,25 187,55 278,55 171,0 388,-173 700,-186zm-144 2918c-106,0 -171,-79 -171,-156 0,-82 43,-113 85,-154l241 -241c49,-49 76,-92 163,-92 81,0 156,71 156,151 0,44 -2,75 -33,113l-293 293c-38,38 -74,86 -148,86zm-400 -282c-90,0 -161,-75 -161,-166 0,-73 46,-112 84,-150l234 -234c67,-66 84,-93 175,-93 84,0 151,70 151,170 0,67 -53,115 -89,150l-239 239c-39,39 -79,84 -155,84zm-371 -307c-143,0 -203,-175 -124,-265l177 -174c62,-44 148,-34 202,14 48,42 52,82 52,137 0,71 -83,135 -123,175 -49,49 -90,113 -184,113zm1035 -882c-93,0 -107,-36 -107,-107 0,-200 212,-593 345,-757 189,-233 421,-388 743,-388 141,0 306,67 402,116 99,49 284,138 385,138 85,0 139,-3 220,-19l122 -29c18,-5 26,-9 43,-11 24,44 49,85 73,127 69,120 161,267 223,381 25,45 49,82 74,127l74 126c14,24 142,235 147,257 -22,6 -641,446 -747,516 -24,-16 -807,-802 -856,-851 -48,-48 -93,-93 -141,-141 -25,-25 -46,-46 -71,-71 -45,-44 -47,-62 -104,-62 -95,0 -193,73 -247,119 -24,19 -74,69 -93,92 -58,69 -195,238 -254,297 -50,49 -139,140 -231,140zm-259 -122c0,47 5,99 19,137 19,53 66,97 120,115 142,48 270,8 380,-90 18,-16 29,-24 46,-41 17,-17 30,-30 47,-46l61 -71c48,-58 112,-140 163,-192 60,-61 135,-160 229,-182 35,23 668,665 697,693l610 609c82,81 70,221 -39,270 -134,60 -221,-67 -317,-163l-596 -594c-22,-22 -32,-40 -71,-38 -62,3 -93,72 -57,121 42,56 549,551 650,652 40,40 80,76 80,150 0,80 -72,156 -152,156 -58,0 -98,-17 -138,-57l-507 -507c-26,-25 -55,-69 -102,-69 -45,0 -78,37 -76,77 1,42 38,68 63,92l393 392c141,140 -13,354 -185,267 -66,-34 -295,-322 -356,-322 -46,0 -83,34 -83,78 0,38 36,63 57,84l179 178c13,13 28,21 33,40 -247,131 -454,-26 -454,-82 0,-42 78,-126 78,-205 0,-112 -35,-148 -107,-221 -10,-10 -14,-14 -25,-23 -57,-43 7,-61 -27,-173 -13,-45 -31,-86 -58,-118l-91 -79c-47,-27 -173,-58 -234,-29 0,-65 -34,-138 -65,-174 -40,-47 -82,-79 -142,-102 -90,-35 -202,-21 -284,35 -24,17 -42,40 -66,56 -1,-58 -61,-133 -102,-167 -148,-119 -364,-81 -455,55 -56,-38 -211,-178 -283,-234 -16,-12 -32,-26 -48,-40 -107,-94 -222,-181 -331,-273 -17,-14 -30,-27 -48,-41 -12,-9 -39,-30 -46,-41 6,-23 219,-315 251,-362 29,-41 59,-79 85,-120l169 -240c29,-42 58,-79 85,-120 14,-20 28,-40 43,-60 16,-21 25,-44 45,-57 60,14 121,52 269,77 236,40 348,-45 558,-114 252,-84 443,-85 680,34 18,8 28,18 46,22 -18,27 -53,52 -79,73 -73,58 -203,237 -250,315 -93,154 -262,461 -262,669z"/>
 </g>
</svg>
