<?xml version="1.0" encoding="UTF-8"?>
<!DOCTYPE svg PUBLIC "-//W3C//DTD SVG 1.1//EN" "http://www.w3.org/Graphics/SVG/1.1/DTD/svg11.dtd">
<!-- Creator: CorelDRAW X8 -->
<svg xmlns="http://www.w3.org/2000/svg" xml:space="preserve" width="51mm" height="51mm" version="1.1" style="shape-rendering:geometricPrecision; text-rendering:geometricPrecision; image-rendering:optimizeQuality; fill-rule:evenodd; clip-rule:evenodd"
viewBox="0 0 5100 5100"
 xmlns:xlink="http://www.w3.org/1999/xlink">
 <defs>
  <style type="text/css">
   <![CDATA[
    .fil0 {fill:#1F2041}
   ]]>
  </style>
 </defs>
 <g id="Слой_x0020_1">
  <metadata id="CorelCorpID_0Corel-Layer"/>
  <g id="_720373152">
   <path class="fil0" d="M3798 1871c0,-76 73,-54 145,-53 44,0 46,0 71,22l442 425c73,73 181,140 170,204 -160,16 -578,7 -764,7 -53,0 -64,-4 -64,-60l0 -545zm1228 916l0 -199c-32,-44 0,-63 -125,-184l-468 -461c-62,-60 -267,-272 -313,-305 -148,-105 -431,-21 -559,-59 -2,-143 11,-254 -95,-314 -93,-53 -261,-33 -382,-33 -227,0 -1970,-8 -2058,2 -193,22 -174,208 -189,226 -10,8 0,3 -18,8 -48,15 -603,64 -704,82 -10,2 -10,1 -19,4l-18 9c-1,1 -4,2 -5,4 230,30 464,57 696,91 118,17 233,30 349,46 110,15 236,22 335,50l-1413 140c71,40 1293,172 1407,214l-1421 123c32,26 782,136 809,164 22,32 6,325 8,391l4183 1z"/>
   <path class="fil0" d="M5026 3393l0 -492 -4183 0c-8,103 -14,462 20,533 28,58 85,107 167,114 56,5 243,10 284,-4 31,-66 17,-173 181,-326 200,-186 533,-189 739,1 115,106 129,166 181,330l1094 0c22,-79 27,-116 64,-186 29,-54 75,-110 113,-144 85,-74 209,-140 369,-141 245,-2 452,154 526,369 12,34 15,67 28,99 53,9 223,7 271,-6 106,-28 117,-109 146,-147z"/>
   <path class="fil0" d="M4018 3427c118,-32 222,60 245,155 29,127 -60,230 -155,251 -260,60 -380,-329 -90,-406zm3 -212c-214,23 -404,205 -378,449 23,223 206,408 461,381 211,-22 394,-216 369,-450 -13,-128 -70,-223 -138,-278 -77,-63 -176,-117 -314,-102z"/>
   <path class="fil0" d="M1826 3425c120,-27 223,63 242,159 27,127 -58,229 -158,250 -268,57 -367,-346 -84,-409zm-36 -206c-204,40 -383,231 -336,492 36,199 244,381 495,329 202,-42 371,-240 324,-491 -37,-197 -237,-378 -483,-330z"/>
  </g>
 </g>
</svg>
