<?xml version="1.0" encoding="UTF-8"?>
<!DOCTYPE svg PUBLIC "-//W3C//DTD SVG 1.1//EN" "http://www.w3.org/Graphics/SVG/1.1/DTD/svg11.dtd">
<!-- Creator: CorelDRAW X8 -->
<svg xmlns="http://www.w3.org/2000/svg" xml:space="preserve" width="51mm" height="51mm" version="1.1" style="shape-rendering:geometricPrecision; text-rendering:geometricPrecision; image-rendering:optimizeQuality; fill-rule:evenodd; clip-rule:evenodd"
viewBox="0 0 5100 5100"
 xmlns:xlink="http://www.w3.org/1999/xlink">
 <defs>
  <style type="text/css">
   <![CDATA[
    .fil0 {fill:#1F2041}
   ]]>
  </style>
 </defs>
 <g id="Слой_x0020_1">
  <metadata id="CorelCorpID_0Corel-Layer"/>
  <path class="fil0" d="M3041 4735c-87,-236 -229,-491 -320,-731 -18,-50 117,-310 141,-370 51,-128 132,33 369,-151 55,-43 57,-59 116,-145 9,-13 98,-134 156,-95 14,9 151,318 168,356 52,112 312,631 328,715 -139,7 -580,-39 -649,41 -48,58 -284,369 -309,380zm-1352 -1501c171,15 166,253 412,330 287,92 417,-156 581,-64l-529 1235c-29,-13 -161,-193 -196,-238 -61,-80 -111,-182 -236,-182l-528 -2 496 -1079zm509 -2975c174,-44 256,227 640,29 270,-139 310,171 498,275 125,69 259,30 345,76 124,68 102,135 122,292 42,319 314,289 351,483 42,212 -231,257 -25,650 140,269 -186,306 -280,497 -66,131 -29,252 -77,343 -65,123 -148,100 -296,120 -307,42 -287,313 -478,350 -203,40 -272,-230 -653,-27 -125,66 -234,18 -294,-67 -69,-99 -94,-153 -202,-211 -125,-67 -253,-28 -345,-76 -126,-66 -100,-140 -120,-296 -44,-316 -317,-282 -351,-482 -36,-207 232,-272 24,-648 -69,-126 -4,-248 74,-294 339,-197 202,-391 286,-548 66,-123 150,-93 298,-116 325,-51 260,-293 483,-350zm1520 2941c191,-57 273,-199 290,-452 14,-199 233,-189 326,-408 125,-291 -119,-398 -64,-587 31,-102 87,-126 96,-271 16,-294 -210,-368 -292,-448 -91,-86 -47,-159 -77,-288 -41,-181 -184,-325 -397,-338 -327,-21 -203,-160 -433,-303 -268,-165 -410,49 -576,48 -159,-1 -304,-214 -576,-44 -230,144 -90,275 -437,300 -200,14 -353,161 -389,344 -28,134 14,202 -81,286 -61,53 -143,77 -204,165 -188,273 -7,466 16,558 46,180 -194,298 -63,587 100,220 314,191 323,415 10,254 124,374 293,439 -22,110 -316,688 -382,833 -245,539 -282,492 396,487 50,0 101,0 152,0 86,-1 67,-6 108,45 40,50 93,117 133,170 54,69 210,310 302,305 104,-7 183,-276 229,-378 31,-69 152,-375 186,-419 32,38 151,342 188,423 45,97 122,373 233,374 85,0 242,-244 297,-310 37,-44 85,-106 135,-168 30,-38 22,-43 111,-42 50,1 101,-1 152,0 697,5 622,36 388,-491 -77,-171 -344,-716 -383,-832z"/>
  <polygon class="fil0" points="3530,1209 3353,1098 2490,2436 1800,1820 1664,1974 2536,2757 "/>
 </g>
</svg>
