<?xml version="1.0" encoding="UTF-8"?>
<!DOCTYPE svg PUBLIC "-//W3C//DTD SVG 1.1//EN" "http://www.w3.org/Graphics/SVG/1.1/DTD/svg11.dtd">
<!-- Creator: CorelDRAW X8 -->
<svg xmlns="http://www.w3.org/2000/svg" xml:space="preserve" width="51mm" height="51mm" version="1.1" style="shape-rendering:geometricPrecision; text-rendering:geometricPrecision; image-rendering:optimizeQuality; fill-rule:evenodd; clip-rule:evenodd"
viewBox="0 0 5100 5100"
 xmlns:xlink="http://www.w3.org/1999/xlink">
 <defs>
  <style type="text/css">
   <![CDATA[
    .fil0 {fill:#1F2041}
   ]]>
  </style>
 </defs>
 <g id="Слой_x0020_1">
  <metadata id="CorelCorpID_0Corel-Layer"/>
  <g id="_629122000">
   <path class="fil0" d="M2257 2090l-672 0 0 -867 711 0c399,0 435,83 435,473 0,364 -116,394 -474,394zm-1067 0l-336 0 0 355 336 0 0 197 -336 0 0 355 336 0 0 375 395 0 0 -375c432,0 356,77 356,-355l-356 0 0 -197 830 0c612,0 692,-351 692,-828 0,-445 -172,-729 -613,-729l-1304 0 0 1202z"/>
   <path class="fil0" d="M2474 4318l0 -1380c0,-112 162,-79 336,-79 47,0 79,33 79,79l0 1380c0,112 -162,79 -336,79 -46,0 -79,-33 -79,-79zm1384 -1459c240,0 1027,-76 1027,138 0,341 -296,102 -395,237 107,159 356,-65 356,197 0,217 -216,197 -435,197l0 79c120,28 336,-17 336,99 0,252 -167,256 -415,256l0 79c131,30 257,-21 257,98 0,225 -312,158 -672,158 -234,0 -929,-61 -929,-276l0 -1084c0,-144 309,-226 433,-396 176,-239 128,-325 200,-629 438,-102 241,663 237,847zm-1127 -197c-185,0 -435,29 -435,237l0 1459c0,270 384,217 554,217 134,0 154,-92 217,-138 332,158 1031,138 1403,138 327,0 286,-354 337,-438 35,-57 74,-72 101,-171 52,-187 40,-229 107,-428l48 -560c0,-354 -596,-296 -968,-296l20 -335c0,-200 -211,-533 -396,-533 -416,0 -246,348 -388,618 -204,386 -306,230 -600,230z"/>
   <path class="fil0" d="M63 1952l0 237c0,882 875,1755 1759,1755l277 0 0 -237c-79,7 -48,20 -99,20 -949,0 -1719,-728 -1719,-1656 0,-896 762,-1656 1660,-1656 707,0 1532,615 1581,1202l237 0c-14,-645 -959,-1419 -1700,-1419l-237 0c-884,0 -1759,872 -1759,1754z"/>
  </g>
 </g>
</svg>
