<?xml version="1.0" encoding="UTF-8"?>
<!DOCTYPE svg PUBLIC "-//W3C//DTD SVG 1.1//EN" "http://www.w3.org/Graphics/SVG/1.1/DTD/svg11.dtd">
<!-- Creator: CorelDRAW X8 -->
<svg xmlns="http://www.w3.org/2000/svg" xml:space="preserve" width="51mm" height="51mm" version="1.1" style="shape-rendering:geometricPrecision; text-rendering:geometricPrecision; image-rendering:optimizeQuality; fill-rule:evenodd; clip-rule:evenodd"
viewBox="0 0 5100 5100"
 xmlns:xlink="http://www.w3.org/1999/xlink">
 <defs>
  <style type="text/css">
   <![CDATA[
    .fil0 {fill:#1F2041}
   ]]>
  </style>
 </defs>
 <g id="Слой_x0020_1">
  <metadata id="CorelCorpID_0Corel-Layer"/>
  <g id="_624585664">
   <g>
    <g>
     <path class="fil0" d="M4670 2788l-129 -516c36,-7 62,-39 62,-76l0 -83c0,-181 -147,-328 -327,-328l-588 0 0 -171c0,-89 -72,-161 -161,-161l-1092 0 664 -266c40,-16 59,-61 43,-101 -16,-40 -61,-59 -101,-43l-543 217c165,-106 329,-223 392,-305 121,-159 90,-387 -69,-509 -159,-121 -387,-90 -509,69 -89,116 -206,443 -281,673 -76,-230 -193,-557 -282,-673 -121,-159 -349,-190 -509,-69 -159,122 -189,350 -68,509 62,82 226,199 392,305l-544 -217c-40,-16 -85,3 -101,43 -16,40 3,85 43,101l664 266 -1092 0c-89,0 -161,72 -161,161l0 1413c0,44 35,78 78,78 43,0 78,-34 78,-78l0 -1413c0,-3 2,-5 5,-5l2993 0c3,0 6,2 6,5l0 1413c0,44 34,78 77,78 44,0 78,-34 78,-78l0 -88 920 0c0,0 0,0 0,0 0,0 0,0 0,0 114,0 210,74 243,177l-243 0c-43,0 -78,35 -78,78l0 166c0,135 110,244 245,244l88 0 0 343 -204 0c-67,-193 -251,-332 -466,-332 -216,0 -400,139 -467,332l-38 0 0 -587c0,-43 -34,-78 -78,-78 -43,0 -77,35 -77,78l0 587 -1618 0c-67,-193 -250,-332 -466,-332 -216,0 -400,139 -467,332l-448 0c-3,0 -5,-2 -5,-5l0 -171 338 0c43,0 78,-35 78,-78 0,-43 -35,-78 -78,-78l-749 0c-43,0 -78,35 -78,78 0,43 35,78 78,78l255 0 0 171c0,89 72,161 161,161l421 0c0,2 0,4 0,5 0,273 221,494 494,494 272,0 493,-221 493,-494 0,-1 0,-3 0,-5l1757 0c0,2 0,4 0,5 0,273 221,494 493,494 273,0 494,-221 494,-494 0,-1 0,-3 0,-5l255 0c43,0 78,-35 78,-78l0 -831c0,-206 -152,-376 -349,-406zm-2948 -1613c-308,-191 -399,-279 -426,-314 -69,-91 -52,-221 39,-291 37,-28 82,-42 125,-42 63,0 125,28 165,81 76,99 194,432 272,672 -53,-31 -113,-67 -175,-106zm443 106c78,-240 196,-573 271,-672 69,-90 200,-108 290,-39 91,70 109,200 40,291 -27,35 -119,123 -426,314 -62,39 -123,75 -175,106zm1523 660l588 0c94,0 171,77 171,172l0 5 -759 0 0 -177zm0 842l0 -509 693 0 127 509 -820 0zm-2239 1663c-187,0 -338,-151 -338,-338 0,-186 151,-337 338,-337 186,0 337,151 337,337 0,187 -151,338 -337,338zm2744 0c-187,0 -338,-151 -338,-338 0,-186 151,-337 338,-337 186,0 337,151 337,337 0,187 -151,338 -337,338zm670 -998l-88 0c-49,0 -89,-39 -89,-88l0 -88 177 0 0 176 0 0z"/>
    </g>
   </g>
   <g>
    <g>
     <path class="fil0" d="M1449 3947c-89,0 -161,73 -161,161 0,89 72,161 161,161 89,0 161,-72 161,-161 0,-88 -72,-161 -161,-161z"/>
    </g>
   </g>
   <g>
    <g>
     <path class="fil0" d="M4193 3947c-89,0 -162,73 -162,161 0,89 73,161 162,161 88,0 161,-72 161,-161 0,-88 -73,-161 -161,-161z"/>
    </g>
   </g>
   <g>
    <g>
     <path class="fil0" d="M3278 3615l-1164 0c-43,0 -78,35 -78,78 0,43 35,78 78,78l1164 0c43,0 78,-35 78,-78 0,-43 -35,-78 -78,-78z"/>
    </g>
   </g>
   <g>
    <g>
     <path class="fil0" d="M1282 3282l-997 0c-43,0 -78,35 -78,78 0,43 35,78 78,78l997 0c43,0 78,-35 78,-78 0,-43 -35,-78 -78,-78z"/>
    </g>
   </g>
   <g>
    <g>
     <path class="fil0" d="M1282 2118l-332 0c-43,0 -78,35 -78,78l0 665c0,43 35,78 78,78 43,0 78,-35 78,-78l0 -254 171 0c43,0 78,-35 78,-78 0,-43 -35,-78 -78,-78l-171 0 0 -177 254 0c43,0 78,-35 78,-78 0,-43 -35,-78 -78,-78z"/>
    </g>
   </g>
   <g>
    <g>
     <path class="fil0" d="M1896 2643c78,-51 130,-139 130,-239 0,-158 -129,-286 -286,-286l-208 0c-43,0 -78,35 -78,78l0 665c0,43 35,78 78,78 43,0 78,-35 78,-78l0 -171 130 0 143 214c15,23 39,35 65,35 15,0 30,-4 43,-13 36,-24 45,-72 21,-108l-116 -175zm-156 -109l-130 0 0 -260 130 0c71,0 130,58 130,130 0,71 -59,130 -130,130z"/>
    </g>
   </g>
   <g>
    <g>
     <path class="fil0" d="M2530 2783l-255 0 0 -177c2,0 3,1 5,1l166 0c43,0 78,-35 78,-78 0,-43 -35,-78 -78,-78l-166 0c-2,0 -3,0 -5,0l0 -177 255 0c43,0 78,-35 78,-78 0,-43 -35,-78 -78,-78l-333 0c-43,0 -78,35 -78,78l0 665c0,43 35,78 78,78l333 0c43,0 78,-35 78,-78 0,-43 -35,-78 -78,-78z"/>
    </g>
   </g>
   <g>
    <g>
     <path class="fil0" d="M3112 2783l-255 0 0 -176 88 0c43,0 78,-35 78,-78 0,-43 -35,-78 -78,-78l-88 0 0 -177 255 0c43,0 78,-35 78,-78 0,-43 -35,-78 -78,-78l-333 0c-43,0 -78,35 -78,78l0 665c0,43 35,78 78,78l333 0c43,0 78,-35 78,-78 0,-43 -35,-78 -78,-78z"/>
    </g>
   </g>
   <g>
   </g>
   <g>
   </g>
   <g>
   </g>
   <g>
   </g>
   <g>
   </g>
   <g>
   </g>
   <g>
   </g>
   <g>
   </g>
   <g>
   </g>
   <g>
   </g>
   <g>
   </g>
   <g>
   </g>
   <g>
   </g>
   <g>
   </g>
   <g>
   </g>
  </g>
 </g>
</svg>
