<?xml version="1.0" encoding="UTF-8"?>
<!DOCTYPE svg PUBLIC "-//W3C//DTD SVG 1.1//EN" "http://www.w3.org/Graphics/SVG/1.1/DTD/svg11.dtd">
<!-- Creator: CorelDRAW X8 -->
<svg xmlns="http://www.w3.org/2000/svg" xml:space="preserve" width="51mm" height="51mm" version="1.1" style="shape-rendering:geometricPrecision; text-rendering:geometricPrecision; image-rendering:optimizeQuality; fill-rule:evenodd; clip-rule:evenodd"
viewBox="0 0 5100 5100"
 xmlns:xlink="http://www.w3.org/1999/xlink">
 <defs>
  <style type="text/css">
   <![CDATA[
    .fil0 {fill:#1F2041}
   ]]>
  </style>
 </defs>
 <g id="Слой_x0020_1">
  <metadata id="CorelCorpID_0Corel-Layer"/>
  <path class="fil0" d="M3412 3082c15,-18 152,-107 183,-128 106,-73 267,-200 384,-238 55,-18 226,-61 247,11 19,66 -13,72 -49,97 -78,55 -621,421 -651,434 -28,-100 -60,-118 -114,-176zm91 -474c12,-9 17,-8 36,-10 11,-2 24,-2 35,-2 22,-1 52,-1 64,13 120,12 -82,132 -103,146 -65,42 -127,85 -192,130 -57,39 -122,114 -208,105 -104,-11 -188,-5 -292,-26 55,-54 566,-367 660,-356zm-2319 -204l-125 30 -207 75c-9,10 0,3 -14,10l-109 44c-20,13 -192,89 -211,90 -19,21 -59,33 -88,42l-22 8c-14,14 -41,24 -59,32 -21,10 -42,22 -63,28 -26,18 -84,40 -118,58 -21,10 -42,18 -61,28 -27,14 -25,21 -44,37l0 102c118,114 320,-68 450,-109 13,-12 82,-43 101,-44 21,-21 192,-94 230,-103 27,-25 348,-144 407,-131 26,-15 207,-19 234,-5l17 -3c37,3 106,0 132,20 24,-1 71,8 90,21 85,20 148,68 199,112 29,25 128,128 145,157 17,7 55,47 104,76 89,52 307,117 404,136 103,20 194,43 303,57 110,14 221,6 325,30 168,39 146,168 109,207 -58,62 -187,71 -289,72 -235,2 -475,4 -707,-9l-41 -9c-51,5 -236,-38 -293,-52 -111,-26 -183,-69 -233,48 -1,33 -1,50 15,76 17,27 28,22 47,43l23 4c32,6 106,18 127,34 30,-2 230,41 286,47 187,24 830,29 975,0 111,-23 149,-50 223,-111 24,-20 73,-47 100,-66 70,-47 485,-332 506,-335l35 -26c35,-40 433,-298 519,-291 14,-10 29,-13 68,-15l55 4c21,6 5,0 14,6 34,-2 184,94 -48,279 -87,70 -196,137 -292,202 -372,251 -812,542 -1192,784 -95,61 -201,130 -305,189 -116,67 -226,115 -387,76l-21 -10c-57,1 -229,-87 -283,-116 -42,-22 -244,-119 -260,-136 -56,-18 -153,-76 -210,-105 -69,-34 -137,-70 -204,-106 -122,-65 -304,-180 -475,-124 -77,10 -176,101 -220,110 -56,84 -277,105 -254,260 89,129 146,51 269,-27 293,-187 262,-218 584,-46 36,20 271,136 279,148 60,20 159,80 218,110 72,36 145,76 217,111 155,73 305,152 514,138 142,-5 262,-68 360,-128 489,-299 994,-638 1470,-956 196,-131 413,-244 502,-461 12,-50 16,-72 13,-127l-19 -89c-26,-24 -39,-66 -73,-96 -12,-11 -29,-25 -47,-36 -17,-10 -38,-18 -50,-30l-94 -20c-49,-3 -76,0 -122,5l-104 30 -104 39c2,-64 -7,-81 -39,-116 -28,-31 -59,-38 -87,-66 -74,0 -102,-40 -229,-16 -82,15 -130,41 -198,63 -37,-45 -19,-136 -235,-164l-126 4 -86 13c-13,12 -100,37 -124,48 -42,19 -77,46 -112,59l-206 126c-13,18 -36,27 -56,40 -21,13 -38,24 -58,36 -34,21 -84,56 -120,72 -26,24 -70,46 -106,69 -47,29 -55,52 -114,25l-125 -42c-34,1 -99,-31 -125,-50 -18,-13 -77,-75 -82,-93l-18 -20 -315 -217 -122 -42 -102 -18c-118,-13 -215,-20 -337,-12l-99 8z"/>
  <path class="fil0" d="M3138 1691c0,35 3,92 -16,116 6,93 -107,230 -185,291 -89,68 -236,114 -382,88 -233,-42 -436,-257 -405,-543 27,-248 239,-447 513,-438 261,8 471,222 475,486zm156 -1078c33,8 84,15 110,38 72,1 271,190 223,433 -30,155 -184,320 -363,313 -46,-119 -176,-239 -283,-300 -48,-28 -96,-39 -137,-63 -20,-140 60,-252 122,-315 35,-36 81,-65 137,-85 87,-32 112,-13 191,-21zm-450 -50l-33 26 -75 94 -14 20c-3,27 -34,74 -45,103 -9,32 -19,60 -25,93 -4,29 0,83 -13,102l-131 18c-286,87 -481,232 -545,539 -51,240 25,444 171,612 26,30 142,115 149,124 37,13 73,38 116,54 26,9 116,28 129,38l69 4c382,16 520,-207 580,-243l7 -10c19,-37 47,-67 70,-111 14,-25 43,-108 56,-122 -1,-30 21,-100 24,-141 6,-64 -2,-106 -5,-166 30,-16 108,-15 222,-84 21,-14 43,-36 63,-40 23,-37 65,-64 94,-103 17,-22 27,-36 41,-59 12,-20 22,-46 34,-63 49,-152 77,-270 18,-432 -46,-130 -122,-222 -211,-288 -242,-178 -540,-140 -746,35z"/>
  <path class="fil0" d="M2732 1430c-157,0 -123,-18 -194,53 -28,29 -105,97 -120,126l134 1 1 358 179 1 0 -539z"/>
  <path class="fil0" d="M3050 932l112 0 2 297 146 0 1 -444c-117,-11 -114,-4 -159,42 -22,22 -89,83 -102,105z"/>
 </g>
</svg>
