<?xml version="1.0" encoding="UTF-8"?>
<!DOCTYPE svg PUBLIC "-//W3C//DTD SVG 1.1//EN" "http://www.w3.org/Graphics/SVG/1.1/DTD/svg11.dtd">
<!-- Creator: CorelDRAW X8 -->
<svg xmlns="http://www.w3.org/2000/svg" xml:space="preserve" width="51mm" height="51mm" version="1.1" style="shape-rendering:geometricPrecision; text-rendering:geometricPrecision; image-rendering:optimizeQuality; fill-rule:evenodd; clip-rule:evenodd"
viewBox="0 0 5100 5100"
 xmlns:xlink="http://www.w3.org/1999/xlink">
 <defs>
  <style type="text/css">
   <![CDATA[
    .fil0 {fill:#1F2041}
   ]]>
  </style>
 </defs>
 <g id="Слой_x0020_1">
  <metadata id="CorelCorpID_0Corel-Layer"/>
  <g id="_723348240">
   <path class="fil0" d="M842 421c35,17 255,249 280,274 58,57 240,221 264,289 31,36 58,163 45,219 -13,173 -133,296 -267,343 -218,77 -422,-70 -439,-118 -25,-12 -41,-34 -60,-54 -20,-18 -34,-33 -54,-52 -17,-18 -100,-88 -103,-113 -16,-2 -5,2 -17,-6 -3,-2 -302,-311 -335,-331 -61,81 -84,342 -94,371l0 150c12,28 11,77 17,111 35,191 121,376 247,520 14,16 49,46 55,65 21,10 9,-1 20,19 12,4 56,45 75,61 44,36 113,81 164,108 19,11 74,35 85,44l121 47c42,-5 186,65 449,36 45,-5 105,-22 146,-22 15,22 65,67 88,89 26,26 50,49 88,90 28,31 157,163 183,179l67 -63c18,-20 47,-37 70,-56 -27,-35 -105,-70 -157,-207 -29,-76 -50,-240 -6,-314 21,-86 77,-146 124,-192 26,-26 56,-48 83,-72 25,-23 55,-68 83,-73 2,-14 -3,-8 23,-33 22,-21 64,-69 88,-81l2 -2c11,-23 31,-38 50,-54 38,-30 17,-41 36,-65l16 -151c18,-466 -204,-773 -450,-955 -273,-203 -733,-296 -1099,-121 17,30 105,97 112,120z"/>
   <path class="fil0" d="M2500 1677c-117,33 -135,68 -201,132 -58,58 -112,111 -171,168 -71,69 -211,146 -168,329 7,29 22,65 39,89l16 26c15,8 47,33 57,48 22,3 44,19 71,27 32,9 59,12 95,9 72,-8 103,-32 149,-62 10,-16 9,-14 27,-22 3,-7 69,-75 86,-80 9,-18 13,-21 32,-30l35 -39c17,-17 23,-26 39,-31 7,-12 -1,-1 11,-14 3,-4 7,-7 11,-11 12,-11 13,-12 28,-21 41,-10 276,-2 339,-2 57,0 115,0 172,0 43,0 42,6 64,26 41,40 374,349 386,378 10,6 3,2 11,8 4,4 7,8 11,12 33,34 130,121 144,147 14,6 41,33 50,46l3 7c30,14 108,99 136,128 24,23 112,117 135,127 16,-19 48,-54 70,-65l20 -20c11,-20 27,-31 43,-47 10,-10 11,-13 21,-24 11,-14 9,-12 23,-19 4,-9 -1,-5 10,-15 17,-17 3,-5 15,-9 7,-13 1,-4 10,-16 14,-18 59,-61 78,-70 4,-14 -11,4 9,-15 19,-20 1,-5 15,-9 10,-22 67,-77 88,-86 3,-10 -5,-2 9,-16 16,-17 3,-5 15,-9 10,-20 22,-27 41,-46 20,-20 24,-29 46,-40 3,-7 -1,-1 5,-9 3,-4 4,-6 7,-9 12,-11 8,-8 18,-12 11,-22 39,-44 58,-62 12,-12 8,-11 23,-18 5,-11 2,-7 13,-18 11,-10 9,-9 19,-13 7,-14 5,-11 17,-23 8,-8 12,-12 20,-19 15,-15 25,-28 43,-38 6,-13 12,-19 26,-25 20,-37 89,-87 120,-126 17,-20 35,-45 48,-75 12,-30 15,-64 25,-89l0 -72c-23,-46 -14,-85 -78,-153 -99,-105 -228,-226 -334,-332l-337 -336c-31,-30 -81,-85 -112,-107 -46,37 -104,100 -148,144l-441 438c-34,34 -53,63 -83,64 -47,1 -98,-1 -145,-1 -149,0 -789,-6 -884,2z"/>
   <path class="fil0" d="M2723 2400c-2,14 -10,17 -29,32 -57,50 -204,204 -249,210 5,28 6,8 53,66 18,22 32,41 47,68 120,1 228,-1 336,99 93,85 115,128 150,288 98,39 158,86 208,154 63,85 75,149 79,277 56,49 83,46 141,130 37,54 66,120 72,198 20,232 -124,324 -154,383 29,42 96,84 118,125 9,2 6,-1 8,9 23,10 37,30 55,48 10,9 16,15 25,24 14,13 16,13 24,30 9,1 6,-1 8,8 21,9 40,33 58,51l51 52 6 0c20,14 34,25 54,37 18,11 39,19 56,31 129,39 196,74 361,41 280,-55 480,-310 457,-604 -6,-78 -25,-114 -42,-180 -4,-2 -27,-50 -35,-63 -13,-23 -25,-39 -40,-60 -72,-95 -678,-665 -698,-706 -31,-18 -162,-156 -199,-192 -25,-25 -180,-171 -194,-198l-27 -20c-8,-9 -13,-13 -22,-22l-237 -236c-33,-33 -73,-83 -97,-85l-122 0 -100 0c-39,0 -88,-5 -122,5z"/>
   <path class="fil0" d="M1792 3429c11,-1 30,6 42,15 52,9 65,10 120,5 5,-3 44,-18 56,-23 18,-9 37,-19 57,-26 -16,50 -38,70 -52,133 -2,54 1,68 16,116 19,33 30,56 55,76 10,8 25,19 40,27 12,8 31,13 41,20 53,8 69,9 122,1 30,-13 81,-38 107,-46l-46 100c-11,83 -8,85 13,157 23,33 30,50 59,72 31,25 43,25 78,44 53,8 70,7 123,-1l100 -45c-14,46 -38,71 -50,129 -4,72 5,79 22,137 9,7 17,23 25,32 10,11 23,24 34,33 28,24 46,26 80,41 46,7 69,9 114,-1l6 4 7 -6c2,-1 7,-4 8,-5 5,-2 11,-4 16,-6 67,-31 177,-177 231,-242 25,-30 52,-57 75,-91 77,-115 27,-281 -116,-325 -63,-19 -95,-2 -151,-5 28,-44 66,-66 84,-137 24,-99 -28,-154 -32,-181 -20,-10 -13,-5 -21,-23 -18,-6 -26,-23 -62,-40 -116,-56 -178,0 -248,14 28,-64 85,-93 80,-199 -9,-164 -189,-256 -326,-180 -36,20 -81,68 -112,100 -12,14 -21,24 -38,31 13,-72 50,-113 36,-198 -21,-132 -159,-210 -285,-170 -76,25 -195,160 -254,218 -39,38 -86,78 -117,122 -36,50 -56,111 -37,185 19,76 97,134 97,134 1,-1 2,2 3,4z"/>
  </g>
 </g>
</svg>
